<svg width="124" height="124" viewBox="0 0 124 124" fill="none" xmlns="http://www.w3.org/2000/svg">
<rect width="124" height="124" rx="23" fill="white"/>
<path d="M42.688 71.2164V81.8502H59.039V71.2164L54.1549 76.0752H47.5721L42.688 71.2164Z" fill="#004643"/>
<path d="M90.2988 59.6752V97.7505H20.7031V92.253H84.8106V61.9524L55.4828 32.5748L26.155 61.9524V81.8305H34.3874V58.065H67.3168V87.3281H20.6667V59.6752L55.4828 24.8L90.2988 59.6752ZM81.8092 38.1144V31.2644H95.1582V51.4861L103.333 59.6752V95.0018H97.8452V61.9524L61.2037 24.8H68.2917L81.8092 38.1144ZM39.8756 81.8305H61.8286V63.5626H39.8756V81.8305ZM87.2975 43.612L89.67 45.9885V36.7619H87.2975V43.612Z" fill="#004643"/>
</svg>
