<svg width="42" height="42" viewBox="0 0 42 42" fill="none" xmlns="http://www.w3.org/2000/svg">
<path d="M11.6555 25.4596V30.605H19.5673V25.4596L17.204 27.8106H14.0188L11.6555 25.4596Z" fill="#004643"/>
<path d="M34.6929 19.8751V38.2987H1.01759V35.6386H32.0373V20.977L17.8465 6.76203L3.6556 20.977V30.5954H7.639V19.096H23.5726V33.2556H1V19.8751L17.8465 3.00003L34.6929 19.8751ZM30.5851 9.44249V6.12796H37.0443V15.9127L41 19.8751V36.9686H38.3444V20.977L20.6146 3.00003H24.0443L30.5851 9.44249ZM10.2946 30.5954H20.917V21.7561H10.2946V30.5954ZM33.2407 12.1026L34.3887 13.2525V8.78807H33.2407V12.1026Z" fill="#004643"/>
</svg>
