<svg width="60" height="60" viewBox="0 0 60 60" fill="none" xmlns="http://www.w3.org/2000/svg">
<rect width="60" height="60" rx="18" fill="white"/>
<path d="M20.6555 34.4595V39.605H28.5673V34.4595L26.204 36.8106H23.0188L20.6555 34.4595Z" fill="#004643"/>
<path d="M43.6929 28.8751V47.2987H10.0176V44.6385H41.0373V29.977L26.8465 15.762L12.6556 29.977V39.5954H16.639V28.096H32.5726V42.2555H10V28.8751L26.8465 12L43.6929 28.8751ZM39.5851 18.4425V15.1279H46.0443V24.9126L50 28.8751V45.9686H47.3444V29.977L29.6146 12H33.0443L39.5851 18.4425ZM19.2946 39.5954H29.917V30.7561H19.2946V39.5954ZM42.2407 21.1026L43.3887 22.2525V17.788H42.2407V21.1026Z" fill="#004643"/>
</svg>
