<svg width="23" height="23" viewBox="0 0 23 23" fill="none" xmlns="http://www.w3.org/2000/svg">
<path d="M9.36181 11.4422V23H0V13.1759C0 10.9414 0.500838 8.66834 1.50251 6.35678C2.58124 4.04523 4.08375 1.9263 6.01005 0L9.24623 2.54271C8.09045 4.23786 7.24288 6.01005 6.70352 7.8593C6.24121 9.63149 6.01005 11.0184 6.01005 12.0201L5.31658 11.4422H9.36181ZM23 11.4422V23H13.7538V13.1759C13.7538 10.9414 14.2546 8.66834 15.2563 6.35678C16.258 4.04523 17.7605 1.9263 19.7638 0L23 2.54271C21.7672 4.23786 20.8811 6.01005 20.3417 7.8593C19.8794 9.63149 19.6482 11.0184 19.6482 12.0201L19.0704 11.4422H23Z" fill="white"/>
</svg>
